<svg width="18" height="18" viewBox="0 0 18 18" fill="none" xmlns="http://www.w3.org/2000/svg">
<path d="M8.1665 14.0001H9.83317V12.3334H8.1665V14.0001ZM8.99984 0.666748C4.39984 0.666748 0.666504 4.40008 0.666504 9.00008C0.666504 13.6001 4.39984 17.3334 8.99984 17.3334C13.5998 17.3334 17.3332 13.6001 17.3332 9.00008C17.3332 4.40008 13.5998 0.666748 8.99984 0.666748ZM8.99984 15.6667C5.32484 15.6667 2.33317 12.6751 2.33317 9.00008C2.33317 5.32508 5.32484 2.33341 8.99984 2.33341C12.6748 2.33341 15.6665 5.32508 15.6665 9.00008C15.6665 12.6751 12.6748 15.6667 8.99984 15.6667ZM8.99984 4.00008C7.15817 4.00008 5.6665 5.49175 5.6665 7.33342H7.33317C7.33317 6.41675 8.08317 5.66675 8.99984 5.66675C9.9165 5.66675 10.6665 6.41675 10.6665 7.33342C10.6665 9.00008 8.1665 8.79175 8.1665 11.5001H9.83317C9.83317 9.62508 12.3332 9.41675 12.3332 7.33342C12.3332 5.49175 10.8415 4.00008 8.99984 4.00008Z" fill="black"/>
</svg>
