<?xml version="1.0" standalone="no"?>
<!DOCTYPE svg PUBLIC "-//W3C//DTD SVG 20010904//EN"
 "http://www.w3.org/TR/2001/REC-SVG-20010904/DTD/svg10.dtd">
<svg version="1.0" xmlns="http://www.w3.org/2000/svg"
 width="26.000000pt" height="26.000000pt" viewBox="0 0 26.000000 26.000000"
 preserveAspectRatio="xMidYMid meet">

<g transform="translate(0.000000,26.000000) scale(0.100000,-0.100000)"
fill="#000000" stroke="none">
<path d="M71 242 c-38 -20 -71 -73 -71 -112 0 -62 68 -130 130 -130 39 0 92
33 112 71 23 43 23 75 0 118 -20 38 -73 71 -112 71 -14 0 -41 -8 -59 -18z
m104 -67 c32 -31 32 -59 0 -90 -31 -32 -59 -32 -90 0 -32 31 -32 59 0 90 13
14 34 25 45 25 12 0 32 -11 45 -25z"/>
<path d="M91 161 c-25 -46 1 -86 52 -79 27 4 46 51 31 76 -16 26 -70 28 -83 3z
m55 -16 c14 -13 14 -17 0 -31 -15 -14 -17 -14 -32 0 -12 13 -13 18 -2 30 16
19 16 19 34 1z"/>
</g>
</svg>
