<?xml version="1.0" standalone="no"?>
<!DOCTYPE svg PUBLIC "-//W3C//DTD SVG 20010904//EN"
 "http://www.w3.org/TR/2001/REC-SVG-20010904/DTD/svg10.dtd">
<svg version="1.0" xmlns="http://www.w3.org/2000/svg"
 width="26.000000pt" height="26.000000pt" viewBox="0 0 26.000000 26.000000"
 preserveAspectRatio="xMidYMid meet">

<g transform="translate(0.000000,26.000000) scale(0.100000,-0.100000)"
fill="#000000" stroke="none">
<path d="M71 242 c-38 -20 -71 -73 -71 -112 0 -62 68 -130 130 -130 39 0 92
33 112 71 23 43 23 75 0 118 -20 38 -73 71 -112 71 -14 0 -41 -8 -59 -18z m49
-81 c0 -5 -9 -11 -20 -14 -11 -3 -20 -10 -20 -17 0 -7 9 -14 20 -17 11 -3 20
-10 20 -15 0 -5 -10 -6 -22 -2 -40 12 -50 46 -20 63 21 13 42 14 42 2z m76
-23 c4 -15 1 -25 -12 -35 -21 -15 -44 -17 -44 -3 0 6 9 10 20 10 27 0 25 28
-2 40 -22 8 -22 9 4 9 19 1 29 -5 34 -21z m-41 -8 c4 -6 -7 -10 -25 -10 -18 0
-29 4 -25 10 3 6 15 10 25 10 10 0 22 -4 25 -10z"/>
</g>
</svg>
