<svg width="31" height="26" viewBox="0 0 31 26" fill="none" xmlns="http://www.w3.org/2000/svg">
<path d="M27.155 7.89992H20.9075V3.81992C20.9075 1.94516 19.3505 0.419922 17.4367 0.419922H3.55335C1.63954 0.419922 0.0825195 1.94516 0.0825195 3.81992V11.9799C0.0825195 13.8547 1.63954 15.3799 3.55335 15.3799H4.94169V19.4599C4.94169 19.735 5.11071 19.9828 5.36999 20.0882C5.45606 20.1229 5.5463 20.1399 5.63585 20.1399C5.81668 20.1399 5.99369 20.0709 6.12663 19.9407L10.7824 15.3799H11.8834V18.0999C11.8834 19.9747 13.4404 21.4999 15.3542 21.4999H20.6201L24.5817 25.3807C24.7147 25.5109 24.8917 25.5799 25.0725 25.5799C25.1621 25.5799 25.2523 25.5629 25.3384 25.5282C25.5977 25.4228 25.7667 25.175 25.7667 24.8999V21.4999H27.155C29.0688 21.4999 30.6258 19.9747 30.6258 18.0999V11.2999C30.6258 9.42516 29.0688 7.89992 27.155 7.89992ZM10.495 14.0199C10.3111 14.0199 10.1344 14.0917 10.0042 14.2192L6.33002 17.8184V14.6999C6.33002 14.3246 6.01903 14.0199 5.63585 14.0199H3.55335C2.40485 14.0199 1.47085 13.105 1.47085 11.9799V3.81992C1.47085 2.69486 2.40485 1.77992 3.55335 1.77992H17.4367C18.5852 1.77992 19.5192 2.69486 19.5192 3.81992V11.9799C19.5192 13.105 18.5852 14.0199 17.4367 14.0199H10.495ZM29.2375 18.0999C29.2375 19.225 28.3035 20.1399 27.155 20.1399H25.0725C24.6893 20.1399 24.3783 20.4446 24.3783 20.8199V23.2584L21.3983 20.3392C21.2681 20.2117 21.0915 20.1399 20.9075 20.1399H15.3542C14.2057 20.1399 13.2717 19.225 13.2717 18.0999V15.3799H17.4367C19.3505 15.3799 20.9075 13.8547 20.9075 11.9799V9.25992H27.155C28.3035 9.25992 29.2375 10.1749 29.2375 11.2999V18.0999ZM26.4608 11.9799C26.4608 12.3553 26.1499 12.6599 25.7667 12.6599H22.99C22.6068 12.6599 22.2958 12.3553 22.2958 11.9799C22.2958 11.6046 22.6068 11.2999 22.99 11.2999H25.7667C26.1499 11.2999 26.4608 11.6046 26.4608 11.9799ZM26.4608 14.6999C26.4608 15.0753 26.1499 15.3799 25.7667 15.3799H22.2958C21.9127 15.3799 21.6017 15.0753 21.6017 14.6999C21.6017 14.3246 21.9127 14.0199 22.2958 14.0199H25.7667C26.1499 14.0199 26.4608 14.3246 26.4608 14.6999ZM26.4608 17.4199C26.4608 17.7953 26.1499 18.0999 25.7667 18.0999H16.7425C16.3593 18.0999 16.0484 17.7953 16.0484 17.4199C16.0484 17.0446 16.3593 16.7399 16.7425 16.7399H25.7667C26.1499 16.7399 26.4608 17.0446 26.4608 17.4199ZM16.7425 5.17992C16.7425 5.55528 16.4315 5.85992 16.0484 5.85992H4.94169C4.55851 5.85992 4.24752 5.55528 4.24752 5.17992C4.24752 4.80456 4.55851 4.49992 4.94169 4.49992H16.0484C16.4315 4.49992 16.7425 4.80456 16.7425 5.17992ZM16.7425 7.89992C16.7425 8.27528 16.4315 8.57992 16.0484 8.57992H4.94169C4.55851 8.57992 4.24752 8.27528 4.24752 7.89992C4.24752 7.52456 4.55851 7.21992 4.94169 7.21992H16.0484C16.4315 7.21992 16.7425 7.52456 16.7425 7.89992ZM16.7425 10.6199C16.7425 10.9953 16.4315 11.2999 16.0484 11.2999H4.94169C4.55851 11.2999 4.24752 10.9953 4.24752 10.6199C4.24752 10.2446 4.55851 9.93992 4.94169 9.93992H16.0484C16.4315 9.93992 16.7425 10.2446 16.7425 10.6199Z" fill="#828282"/>
</svg>
