<svg width="31" height="24" viewBox="0 0 31 24" fill="none" xmlns="http://www.w3.org/2000/svg">
<path d="M23.6358 0.780518H23.1088C21.2048 0.780518 19.4937 1.86036 18.6421 3.59946L18.3008 4.2968C18.1304 4.64428 17.7881 4.86052 17.4076 4.86052H13.884C13.5035 4.86052 13.1612 4.64428 12.9911 4.2968L12.6496 3.59946C11.798 1.86036 10.0868 0.780518 8.18281 0.780518H7.6558C3.80063 0.780518 0.664551 3.984 0.664551 7.92052V18.1205C0.664551 20.9327 2.90475 23.2205 5.6583 23.2205H6.85514C8.94719 23.2205 10.8332 21.8717 11.5486 19.8637L14.1094 12.672C14.2519 12.2705 14.6291 12.0005 15.0476 12.0005H16.2444C16.6629 12.0005 17.0397 12.2705 17.1825 12.672L19.7433 19.8637C20.4588 21.8717 22.3444 23.2205 24.4365 23.2205H25.6333C28.3869 23.2205 30.6271 20.9327 30.6271 18.1205V7.92052C30.6271 3.984 27.491 0.780518 23.6358 0.780518ZM28.6296 18.1205C28.6296 19.8079 27.2856 21.1805 25.6333 21.1805H24.4365C23.181 21.1805 22.0495 20.3706 21.6207 19.1664L19.0599 11.9747C18.6314 10.7704 17.4995 9.96052 16.2441 9.96052H15.0472C13.7918 9.96052 12.6602 10.7704 12.2314 11.9747L9.67061 19.1664C9.24215 20.3706 8.11023 21.1805 6.85514 21.1805H5.6583C4.00604 21.1805 2.66205 19.8079 2.66205 18.1205V7.92052C2.66205 5.10838 4.90225 2.82052 7.6558 2.82052H8.18281C9.32505 2.82052 10.3521 3.4689 10.8625 4.51202L11.2037 5.20936C11.7151 6.25214 12.7418 6.90052 13.884 6.90052H17.4079C18.5502 6.90052 19.5765 6.25214 20.0876 5.20902L20.4288 4.51168C20.9395 3.4689 21.9666 2.82052 23.1088 2.82052H23.6358C26.3894 2.82052 28.6296 5.10838 28.6296 7.92052V18.1205ZM22.6371 6.90052C22.6371 6.33714 23.0842 5.88052 23.6358 5.88052C24.1874 5.88052 24.6346 6.33714 24.6346 6.90052C24.6346 7.4639 24.1874 7.92052 23.6358 7.92052C23.0842 7.92052 22.6371 7.4639 22.6371 6.90052ZM24.6346 10.9805C24.6346 11.5439 24.1874 12.0005 23.6358 12.0005C23.0842 12.0005 22.6371 11.5439 22.6371 10.9805C22.6371 10.4171 23.0842 9.96052 23.6358 9.96052C24.1874 9.96052 24.6346 10.4171 24.6346 10.9805ZM22.6371 8.94052C22.6371 9.5039 22.1899 9.96052 21.6383 9.96052C21.0867 9.96052 20.6396 9.5039 20.6396 8.94052C20.6396 8.37714 21.0867 7.92052 21.6383 7.92052C22.1899 7.92052 22.6371 8.37714 22.6371 8.94052ZM26.6321 8.94052C26.6321 9.5039 26.1849 9.96052 25.6333 9.96052C25.0817 9.96052 24.6346 9.5039 24.6346 8.94052C24.6346 8.37714 25.0817 7.92052 25.6333 7.92052C26.1849 7.92052 26.6321 8.37714 26.6321 8.94052ZM10.6521 8.94052C10.6521 9.50424 10.2049 9.96052 9.6533 9.96052H8.65455V10.9805C8.65455 11.5442 8.20744 12.0005 7.6558 12.0005C7.10416 12.0005 6.65705 11.5442 6.65705 10.9805V9.96052H5.6583C5.10666 9.96052 4.65955 9.50424 4.65955 8.94052C4.65955 8.3768 5.10666 7.92052 5.6583 7.92052H6.65705V6.90052C6.65705 6.3368 7.10416 5.88052 7.6558 5.88052C8.20744 5.88052 8.65455 6.3368 8.65455 6.90052V7.92052H9.6533C10.2049 7.92052 10.6521 8.3768 10.6521 8.94052Z" fill="#828282"/>
</svg>
