<svg width="35" height="28" viewBox="0 0 35 28" fill="none" xmlns="http://www.w3.org/2000/svg">
<path d="M33.6235 13.2026L18.0047 0.962638C17.6243 0.664798 17.0836 0.664798 16.7032 0.962638L1.08443 13.2026C0.635997 13.5542 0.562762 14.1961 0.921647 14.6361C1.28157 15.0757 1.93548 15.1481 2.38599 14.7955L5.90021 12.0415V24.1993C5.90021 25.8867 7.30139 27.2593 9.02396 27.2593H25.684C27.4065 27.2593 28.8077 25.8867 28.8077 24.1993V12.0415L32.3219 14.7955C32.5142 14.9458 32.744 15.0193 32.9717 15.0193C33.2778 15.0193 33.5798 14.8884 33.7863 14.6364C34.1452 14.1965 34.0719 13.5545 33.6235 13.2026ZM20.4777 25.2193H14.2302V17.0593H20.4777V25.2193ZM26.7252 24.1993C26.7252 24.7616 26.2584 25.2193 25.684 25.2193H22.5602V17.0593C22.5602 15.9342 21.6259 15.0193 20.4777 15.0193H14.2302C13.0821 15.0193 12.1477 15.9342 12.1477 17.0593V25.2193H9.02396C8.44954 25.2193 7.98271 24.7616 7.98271 24.1993V10.4095L17.354 3.06554L26.7252 10.4095V24.1993Z" fill="#E3292B"/>
</svg>
