<svg viewBox="0 0 20.577 20.577" xmlns="http://www.w3.org/2000/svg"><path d="m4.56 145.146-.716 2.674-2.618.055a10.307 10.307 0 0 1 -.076-9.607l2.331.427 1.019 2.317a6.14 6.14 0 0 0 .058 4.134z" fill="#fbbb00" transform="translate(0 -132.711)"/><path d="m271.511 208.176a10.285 10.285 0 0 1 -3.668 9.945l-2.936-.15-.415-2.594a6.132 6.132 0 0 0 2.638-3.131h-5.5v-4.07h9.883z" fill="#518ef8" transform="translate(-251.113 -199.809)"/><path d="m46.012 315.285a10.292 10.292 0 0 1 -15.5-3.148l3.334-2.729a6.119 6.119 0 0 0 8.818 3.133z" fill="#28b446" transform="translate(-29.283 -296.974)"/><path d="m44.329 2.369-3.329 2.731a6.118 6.118 0 0 0 -9.02 3.2l-3.355-2.743a10.291 10.291 0 0 1 15.704-3.188z" fill="#f14336" transform="translate(-27.474)"/></svg>