<svg width="26" height="30" viewBox="0 0 26 30" fill="none" xmlns="http://www.w3.org/2000/svg">
<path d="M22.3399 19.0795V11.9395C22.3399 8.3484 19.6198 5.36864 16.0924 4.87224V3.77948C16.0924 2.09206 14.6912 0.719482 12.9686 0.719482C11.2461 0.719482 9.84488 2.09206 9.84488 3.77948V4.87224C6.31747 5.36864 3.59738 8.3484 3.59738 11.9395V19.0795C1.87481 19.0795 0.473633 20.4521 0.473633 22.1395C0.473633 23.8269 1.87481 25.1995 3.59738 25.1995H8.80363C8.80363 27.4493 10.6716 29.2795 12.9686 29.2795C15.2656 29.2795 17.1336 27.4493 17.1336 25.1995H22.3399C24.0625 25.1995 25.4636 23.8269 25.4636 22.1395C25.4636 20.4521 24.0625 19.0795 22.3399 19.0795ZM12.9686 27.2395C11.8205 27.2395 10.8861 26.3245 10.8861 25.1995H15.0511C15.0511 26.3245 14.1168 27.2395 12.9686 27.2395ZM22.3399 23.1595H3.59738C3.02296 23.1595 2.55613 22.7018 2.55613 22.1395C2.55613 21.5771 3.02296 21.1195 3.59738 21.1195C4.74553 21.1195 5.67988 20.2045 5.67988 19.0795V11.9395C5.67988 9.12734 8.01541 6.83948 10.8861 6.83948C11.4616 6.83948 11.9274 6.38286 11.9274 5.81948V3.77948C11.9274 3.21712 12.3942 2.75948 12.9686 2.75948C13.5431 2.75948 14.0099 3.21712 14.0099 3.77948V5.81948C14.0099 6.38286 14.4757 6.83948 15.0511 6.83948C17.9219 6.83948 20.2574 9.12734 20.2574 11.9395V19.0795C20.2574 20.2045 21.1917 21.1195 22.3399 21.1195C22.9143 21.1195 23.3811 21.5771 23.3811 22.1395C23.3811 22.7018 22.9143 23.1595 22.3399 23.1595Z" fill="#828282"/>
</svg>
