<svg width="25" height="24" viewBox="0 0 25 24" fill="none" xmlns="http://www.w3.org/2000/svg">
<path d="M12.3958 12.7591C10.2568 12.7591 8.51663 11.0544 8.51663 8.95912C8.51663 6.8638 10.2568 5.15912 12.3958 5.15912C14.5348 5.15912 16.275 6.8638 16.275 8.95912C16.275 11.0544 14.5348 12.7591 12.3958 12.7591ZM12.3958 6.67912C11.1126 6.67912 10.0683 7.70208 10.0683 8.95912C10.0683 10.2162 11.1126 11.2391 12.3958 11.2391C13.679 11.2391 14.7233 10.2162 14.7233 8.95912C14.7233 7.70208 13.679 6.67912 12.3958 6.67912ZM12.3958 0.599121C5.97888 0.599121 0.758301 5.71316 0.758301 11.9991C0.758301 18.2851 5.97888 23.3991 12.3958 23.3991C18.8127 23.3991 24.0333 18.2851 24.0333 11.9991C24.0333 5.71316 18.8127 0.599121 12.3958 0.599121ZM6.96497 20.3112V19.5991C6.96497 17.5038 8.70516 15.7991 10.8441 15.7991H13.9475C16.0864 15.7991 17.8266 17.5038 17.8266 19.5991V20.3112C16.2571 21.2985 14.3959 21.8791 12.3958 21.8791C10.3957 21.8791 8.53448 21.2985 6.96497 20.3112ZM19.3542 19.1332C19.1122 16.4178 16.7816 14.2791 13.9475 14.2791H10.8441C8.01001 14.2791 5.67941 16.4178 5.43735 19.1332C3.51484 17.3336 2.30997 14.8035 2.30997 11.9991C2.30997 6.55144 6.83463 2.11912 12.3958 2.11912C17.957 2.11912 22.4816 6.55144 22.4816 11.9991C22.4816 14.8035 21.2768 17.3336 19.3542 19.1332Z" fill="#828282"/>
</svg>
